<?xml version="1.0" encoding="UTF-8" standalone="no"?>
<svg
   xmlns:dc="http://purl.org/dc/elements/1.1/"
   xmlns:cc="http://creativecommons.org/ns#"
   xmlns:rdf="http://www.w3.org/1999/02/22-rdf-syntax-ns#"
   xmlns:svg="http://www.w3.org/2000/svg"
   xmlns="http://www.w3.org/2000/svg"
   xmlns:xlink="http://www.w3.org/1999/xlink"
   xmlns:sodipodi="http://sodipodi.sourceforge.net/DTD/sodipodi-0.dtd"
   xmlns:inkscape="http://www.inkscape.org/namespaces/inkscape"
   version="1.1"
   x="0px"
   y="0px"
   viewBox="0 0 100 100"
   enable-background="new 0 0 100 100"
   xml:space="preserve"
   id="svg2"
   inkscape:version="0.91 r13725"
   sodipodi:docname="logo.svg"
   width="100"
   height="100"
   inkscape:export-filename="/home/user/dev/alexa-transit-times/logo-small.png"
   inkscape:export-xdpi="97.199997"
   inkscape:export-ydpi="97.199997"><metadata
     id="metadata18"><rdf:RDF><cc:Work
         rdf:about=""><dc:format>image/svg+xml</dc:format><dc:type
           rdf:resource="http://purl.org/dc/dcmitype/StillImage" /><dc:title></dc:title></cc:Work></rdf:RDF></metadata><defs
     id="defs16"><inkscape:perspective
       sodipodi:type="inkscape:persp3d"
       inkscape:vp_x="0 : 50 : 1"
       inkscape:vp_y="0 : 1000 : 0"
       inkscape:vp_z="100 : 50 : 1"
       inkscape:persp3d-origin="50 : 33.333333 : 1"
       id="perspective5742" /></defs><sodipodi:namedview
     pagecolor="#ffffff"
     bordercolor="#666666"
     borderopacity="1"
     objecttolerance="10"
     gridtolerance="10"
     guidetolerance="10"
     inkscape:pageopacity="0"
     inkscape:pageshadow="2"
     inkscape:window-width="1549"
     inkscape:window-height="873"
     id="namedview14"
     showgrid="false"
     inkscape:zoom="2.6700352"
     inkscape:cx="45.419163"
     inkscape:cy="20.003751"
     inkscape:window-x="51"
     inkscape:window-y="27"
     inkscape:window-maximized="1"
     inkscape:current-layer="svg2" /><g
     id="g4"
     transform="matrix(0.40957161,0,0,0.40957161,0.11132606,5.1393587)"
     style="fill:#37c2f3;fill-opacity:1"><path
       d="m 50.321,0.502 0,0 0,0 0,0 z"
       id="path6"
       inkscape:connector-curvature="0"
       style="fill:#37c2f3;fill-opacity:1" /><path
       d="M 70.267,76.174 C 75.515,75.32 80.734,69.797 80.734,63.065 l 0,-49.226 C 80.734,6.891 74.945,0.511 67.083,0.511 L 50.321,0.502 33.435,0.511 c -7.865,0 -13.657,6.38 -13.657,13.328 l 0,49.226 c 0,6.732 5.224,12.256 10.468,13.109 L 14.517,100 l 9.072,0 11.251,-16.656 15.403,0 0.014,0 0.014,0 15.4,0 L 76.923,100 86,100 70.267,76.174 Z M 41.393,5.58 c 0,-1.209 1.042,-2.223 2.243,-2.223 l 6.607,0 0.014,0 0.014,0 6.61,0 c 1.196,0 2.236,1.014 2.236,2.223 l 0,3.91 c 0,1.209 -0.983,2.248 -2.236,2.248 l -6.61,0 -0.014,0 -0.014,0 -6.607,0 c -1.26,0 -2.243,-1.039 -2.243,-2.248 l 0,-3.91 z m -8.244,63.414 c -3.309,0 -5.989,-2.707 -5.989,-6.045 0,-3.337 2.681,-6.047 5.989,-6.047 3.307,0 5.984,2.71 5.984,6.047 10e-4,3.338 -2.677,6.045 -5.984,6.045 z m 17.108,-31.982 -0.014,0 -16.355,0 c -3.758,0 -6.838,-2.605 -6.804,-6.862 l 0,-8.861 c 0,-3.684 2.359,-6.896 6.804,-6.896 l 16.355,0 0.027,0 16.355,0 c 4.441,0 6.801,3.212 6.801,6.896 l 0,8.861 c 0.037,4.257 -3.042,6.862 -6.801,6.862 l -16.354,0 -0.014,0 z m 10.984,25.937 c 0,-3.337 2.678,-6.047 5.985,-6.047 3.303,0 5.987,2.71 5.987,6.047 0,3.341 -2.685,6.045 -5.987,6.045 -3.307,0 -5.985,-2.707 -5.985,-6.045 z"
       id="path8"
       inkscape:connector-curvature="0"
       style="fill:#37c2f3;fill-opacity:1" /></g><g
     id="g4820"
     transform="matrix(0.87171371,0,0,0.83667581,-34.209395,-27.472077)"
     style="fill:#37c2f3;fill-opacity:1"><circle
       id="circle4222"
       r="6"
       cy="139.06178"
       cx="127.8152"
       style="fill:#37c2f3;fill-opacity:1" /><circle
       id="circle4224"
       r="6"
       cy="139.06178"
       cx="75.815201"
       style="fill:#37c2f3;fill-opacity:1" /><path
       id="path4226"
       d="m 143.8152,110.06179 c -0.265,-1.982 -2,-4 -4,-4 l -87.999997,0 c -2,0 -4,2 -4,4 l 0,27 19,2 c 0,-4.972 4.029,-9 9,-9 4.971,0 9,4.028 9,9 l 33.999997,0 c 0,-4.972 4.028,-9 9,-9 4.972,0 9,4.028 9,9 l 9,0 0,-14 c 0,0 0,0 -2,-15 z m -79.999997,12 -10,0 0,-9 10,0 0,9 z m 15,0 -9,0 0,-9 9,0 0,9 z m 16,0 -10,0 0,-9 10,0 0,9 z m 15.999997,0 -10,0 0,-9 10,0 0,9 z m 16,0 -10,0 0,-9 10,0 0,9 z m 6,3 0,-12 5.4,0 1.5,12 -6.9,0 z"
       inkscape:connector-curvature="0"
       style="fill:#37c2f3;fill-opacity:1" /></g><g
     style="fill:#2d4987;fill-opacity:1"
     id="s-6"
     transform="matrix(0.25446314,0,0,0.25446314,52.673082,25.18723)"><g
       id="c-2"
       style="fill:#2d4987;fill-opacity:1"><path
         inkscape:connector-curvature="0"
         id="t-9"
         d="M 0,-40 0,0 20,0 Z"
         transform="matrix(0.95105652,0.30901699,-0.30901699,0.95105652,-12.36068,-1.9577393)"
         style="fill:#2d4987;fill-opacity:1" /><use
         height="100%"
         width="100%"
         y="0"
         x="0"
         xlink:href="#t-9"
         transform="scale(-1,1)"
         id="use4992-1"
         style="fill:#2d4987;fill-opacity:1" /></g><use
       height="100%"
       width="100%"
       y="0"
       x="0"
       xlink:href="#c-2"
       transform="matrix(0.30901699,0.95105652,-0.95105652,0.30901699,0,0)"
       id="use4994-2"
       style="fill:#2d4987;fill-opacity:1" /><use
       height="100%"
       width="100%"
       y="0"
       x="0"
       xlink:href="#c-2"
       transform="matrix(-0.80901699,0.58778525,-0.58778525,-0.80901699,0,0)"
       id="use4996-7"
       style="fill:#2d4987;fill-opacity:1" /><use
       height="100%"
       width="100%"
       y="0"
       x="0"
       xlink:href="#c-2"
       transform="matrix(-0.80901699,-0.58778525,0.58778525,-0.80901699,0,0)"
       id="use4998-0"
       style="fill:#2d4987;fill-opacity:1" /><use
       height="100%"
       width="100%"
       y="0"
       x="0"
       xlink:href="#c-2"
       transform="matrix(0.30901699,-0.95105652,0.95105652,0.30901699,0,0)"
       id="use5000-9"
       style="fill:#2d4987;fill-opacity:1" /></g><g
     style="fill:#2d4987;fill-opacity:1"
     id="s-3"
     transform="matrix(0.25446314,0,0,0.25446314,80.90512,25.18723)"><g
       id="c-6"
       style="fill:#2d4987;fill-opacity:1"><path
         inkscape:connector-curvature="0"
         id="t-0"
         d="M 0,-40 0,0 20,0 Z"
         transform="matrix(0.95105652,0.30901699,-0.30901699,0.95105652,-12.36068,-1.9577393)"
         style="fill:#2d4987;fill-opacity:1" /><use
         height="100%"
         width="100%"
         y="0"
         x="0"
         xlink:href="#t-0"
         transform="scale(-1,1)"
         id="use4992-6"
         style="fill:#2d4987;fill-opacity:1" /></g><use
       height="100%"
       width="100%"
       y="0"
       x="0"
       xlink:href="#c-6"
       transform="matrix(0.30901699,0.95105652,-0.95105652,0.30901699,0,0)"
       id="use4994-26"
       style="fill:#2d4987;fill-opacity:1" /><use
       height="100%"
       width="100%"
       y="0"
       x="0"
       xlink:href="#c-6"
       transform="matrix(-0.80901699,0.58778525,-0.58778525,-0.80901699,0,0)"
       id="use4996-1"
       style="fill:#2d4987;fill-opacity:1" /><use
       height="100%"
       width="100%"
       y="0"
       x="0"
       xlink:href="#c-6"
       transform="matrix(-0.80901699,-0.58778525,0.58778525,-0.80901699,0,0)"
       id="use4998-8"
       style="fill:#2d4987;fill-opacity:1" /><use
       height="100%"
       width="100%"
       y="0"
       x="0"
       xlink:href="#c-6"
       transform="matrix(0.30901699,-0.95105652,0.95105652,0.30901699,0,0)"
       id="use5000-7"
       style="fill:#2d4987;fill-opacity:1" /></g><rect
     x="-0.39329177"
     style="fill:#2d4987;fill-opacity:1"
     id="b-9"
     y="50.977417"
     height="5.7103257"
     width="101.27992" /></svg>